<svg width="20" height="20" viewBox="0 0 20 20" fill="none" xmlns="http://www.w3.org/2000/svg">
<path d="M17.7598 6.61719C17.6439 6.5005 17.506 6.40797 17.3542 6.34494C17.2023 6.28191 17.0394 6.24964 16.875 6.25H14.375V5.625C14.375 4.46468 13.9141 3.35188 13.0936 2.53141C12.2731 1.71094 11.1603 1.25 10 1.25C8.83968 1.25 7.72688 1.71094 6.90641 2.53141C6.08594 3.35188 5.625 4.46468 5.625 5.625V6.25H3.125C2.79348 6.25 2.47554 6.3817 2.24112 6.61612C2.0067 6.85054 1.875 7.16848 1.875 7.5V15.9375C1.875 17.4609 3.16406 18.75 4.6875 18.75H15.3125C16.0494 18.7502 16.7572 18.4621 17.2844 17.9473C17.5497 17.6941 17.761 17.3899 17.9055 17.0529C18.0499 16.7158 18.1246 16.353 18.125 15.9863V7.5C18.1255 7.33601 18.0935 7.17355 18.0308 7.02201C17.9681 6.87048 17.876 6.73288 17.7598 6.61719ZM6.875 5.625C6.875 4.7962 7.20424 4.00134 7.79029 3.41529C8.37634 2.82924 9.1712 2.5 10 2.5C10.8288 2.5 11.6237 2.82924 12.2097 3.41529C12.7958 4.00134 13.125 4.7962 13.125 5.625V6.25H6.875V5.625Z" fill="white"/>
</svg>
