<svg width="24" height="23" viewBox="0 0 24 23" fill="none" xmlns="http://www.w3.org/2000/svg">
<path d="M24 11.5C24 5.14697 18.6248 0 12 0C5.37075 0 0 5.14697 0 11.5C0 17.2385 4.38675 21.9966 10.125 22.8584V14.8249H7.07775V11.5007H10.125V8.96569C10.125 6.08422 11.9138 4.49291 14.6558 4.49291C15.969 4.49291 17.3438 4.71716 17.3438 4.71716V7.54688H15.828C14.34 7.54688 13.875 8.43453 13.875 9.34375V11.5H17.2028L16.668 14.8242H13.875V22.8577C19.6087 21.9959 24 17.2378 24 11.4993V11.5Z" fill="#E59328"/>
</svg>
