<svg width="24" height="23" viewBox="0 0 24 23" fill="none" xmlns="http://www.w3.org/2000/svg">
<path d="M12 8.50575C10.2797 8.50575 8.87578 9.85116 8.87578 11.4998C8.87578 13.1484 10.2797 14.4938 12 14.4938C13.7203 14.4938 15.1242 13.1484 15.1242 11.4998C15.1242 9.85116 13.7203 8.50575 12 8.50575ZM21.3703 11.4998C21.3703 10.2599 21.382 9.03133 21.3094 7.79373C21.2367 6.35623 20.8945 5.08045 19.7977 4.02928C18.6984 2.97586 17.3695 2.65018 15.8695 2.58055C14.5758 2.51092 13.2937 2.52215 12.0023 2.52215C10.7086 2.52215 9.42656 2.51092 8.13516 2.58055C6.63516 2.65018 5.30391 2.97811 4.20703 4.02928C3.10781 5.0827 2.76797 6.35623 2.69531 7.79373C2.62266 9.03358 2.63438 10.2622 2.63438 11.4998C2.63438 12.7374 2.62266 13.9682 2.69531 15.2058C2.76797 16.6433 3.11016 17.9191 4.20703 18.9703C5.30625 20.0237 6.63516 20.3494 8.13516 20.419C9.42891 20.4887 10.7109 20.4774 12.0023 20.4774C13.2961 20.4774 14.5781 20.4887 15.8695 20.419C17.3695 20.3494 18.7008 20.0215 19.7977 18.9703C20.8969 17.9169 21.2367 16.6433 21.3094 15.2058C21.3844 13.9682 21.3703 12.7396 21.3703 11.4998ZM12 16.1065C9.33984 16.1065 7.19297 14.0491 7.19297 11.4998C7.19297 8.95047 9.33984 6.89305 12 6.89305C14.6602 6.89305 16.807 8.95047 16.807 11.4998C16.807 14.0491 14.6602 16.1065 12 16.1065ZM17.0039 7.78026C16.3828 7.78026 15.8812 7.29959 15.8812 6.70438C15.8812 6.10916 16.3828 5.6285 17.0039 5.6285C17.625 5.6285 18.1266 6.10916 18.1266 6.70438C18.1267 6.84572 18.0978 6.9857 18.0415 7.11631C17.9851 7.24692 17.9024 7.3656 17.7982 7.46554C17.6939 7.56548 17.57 7.64472 17.4337 7.69872C17.2975 7.75273 17.1514 7.78044 17.0039 7.78026Z" fill="#E59328"/>
</svg>
