<svg width="22" height="22" viewBox="0 0 22 22" fill="none" xmlns="http://www.w3.org/2000/svg">
<path d="M10.3238 2.2099C7.47236 2.2099 5.1619 4.6618 5.1619 7.6989C5.1619 12.9503 10.3238 19.7989 10.3238 19.7989C10.3238 19.7989 15.4857 12.9492 15.4857 7.6989C15.4857 4.6629 13.1752 2.2099 10.3238 2.2099ZM10.3238 10.736C9.58451 10.736 8.87552 10.4231 8.35278 9.86611C7.83004 9.30913 7.53636 8.55369 7.53636 7.766C7.53636 6.97831 7.83004 6.22288 8.35278 5.66589C8.87552 5.10891 9.58451 4.796 10.3238 4.796C11.063 4.796 11.772 5.10891 12.2948 5.66589C12.8175 6.22288 13.1112 6.97831 13.1112 7.766C13.1112 8.55369 12.8175 9.30913 12.2948 9.86611C11.772 10.4231 11.063 10.736 10.3238 10.736Z" fill="white"/>
</svg>
