<svg width="36" height="34" viewBox="0 0 36 34" fill="none" xmlns="http://www.w3.org/2000/svg">
<path d="M31.7812 5.3125H4.21875C4.06406 5.3125 3.9375 5.43203 3.9375 5.57812V7.70312C3.9375 7.84922 4.06406 7.96875 4.21875 7.96875H31.7812C31.9359 7.96875 32.0625 7.84922 32.0625 7.70312V5.57812C32.0625 5.43203 31.9359 5.3125 31.7812 5.3125ZM31.7812 26.0312H4.21875C4.06406 26.0312 3.9375 26.1508 3.9375 26.2969V28.4219C3.9375 28.568 4.06406 28.6875 4.21875 28.6875H31.7812C31.9359 28.6875 32.0625 28.568 32.0625 28.4219V26.2969C32.0625 26.1508 31.9359 26.0312 31.7812 26.0312ZM31.7812 15.6719H4.21875C4.06406 15.6719 3.9375 15.7914 3.9375 15.9375V18.0625C3.9375 18.2086 4.06406 18.3281 4.21875 18.3281H31.7812C31.9359 18.3281 32.0625 18.2086 32.0625 18.0625V15.9375C32.0625 15.7914 31.9359 15.6719 31.7812 15.6719Z" fill="#F4AE51"/>
</svg>
