<svg width="16" height="18" viewBox="0 0 16 18" fill="none" xmlns="http://www.w3.org/2000/svg">
<path d="M13.8051 11.0277C13.7283 10.4274 13.3163 9.95939 12.7859 9.81989C10.7243 9.27629 10.2075 7.94069 10.1203 6.45929C9.75473 6.38279 9.10433 6.29999 8.00033 6.29999C6.89633 6.29999 6.24593 6.38279 5.88033 6.45929C5.79313 7.94069 5.27633 9.27629 3.21473 9.81989C2.68433 9.96029 2.27233 10.4274 2.19553 11.0277L1.79793 14.1255C1.65793 15.2163 2.36993 16.2 3.36033 16.2H12.6403C13.6299 16.2 14.3427 15.2163 14.2027 14.1255L13.8051 11.0277ZM8.00033 13.9428C6.88433 13.9428 5.97953 12.9348 5.97953 11.6928C5.97953 10.4508 6.88433 9.44279 8.00033 9.44279C9.11633 9.44279 10.0211 10.4508 10.0211 11.6928C10.0211 12.9348 9.11553 13.9428 8.00033 13.9428ZM15.9603 5.39999C15.9411 4.04999 12.8867 1.80089 8.00033 1.79999C3.11313 1.80089 0.0587281 4.04999 0.0403281 5.39999C0.0219281 6.74999 0.0571281 8.50679 2.06833 8.21429C4.42113 7.87139 4.27633 6.94709 4.27633 5.62589C4.27633 4.70429 6.18993 4.48199 8.00033 4.48199C9.81073 4.48199 11.7235 4.70429 11.7243 5.62589C11.7243 6.94709 11.5795 7.87139 13.9323 8.21429C15.9427 8.50679 15.9787 6.74999 15.9603 5.39999Z" fill="white"/>
</svg>
