<svg width="25" height="25" viewBox="0 0 25 25" fill="none" xmlns="http://www.w3.org/2000/svg">
<path d="M12.4896 2.0835C6.74166 2.0835 2.08333 6.74287 2.08333 12.4897C2.08333 16.8981 4.82604 20.6668 8.69792 22.1835C8.60625 21.3606 8.525 20.0939 8.73333 19.196C8.92291 18.3835 9.95416 14.0231 9.95416 14.0231C9.95416 14.0231 9.64271 13.3991 9.64271 12.4772C9.64271 11.0314 10.4812 9.95121 11.526 9.95121C12.4146 9.95121 12.8427 10.6179 12.8427 11.4168C12.8427 12.3106 12.274 13.645 11.9812 14.8825C11.7365 15.9179 12.501 16.7627 13.5219 16.7627C15.3708 16.7627 16.7937 14.8127 16.7937 11.997C16.7937 9.50537 15.0031 7.7637 12.4469 7.7637C9.48542 7.7637 7.74687 9.98454 7.74687 12.2793C7.74687 13.1731 8.09166 14.1325 8.52187 14.6543C8.55843 14.6936 8.58425 14.7417 8.59684 14.7939C8.60943 14.8461 8.60836 14.9006 8.59375 14.9522C8.51458 15.2804 8.33854 15.9877 8.30521 16.1325C8.25937 16.3231 8.15417 16.3637 7.95625 16.272C6.65729 15.6668 5.84479 13.7668 5.84479 12.2397C5.84479 8.95746 8.22917 5.94287 12.7208 5.94287C16.3312 5.94287 19.1365 8.51475 19.1365 11.9533C19.1365 15.5408 16.875 18.4252 13.7365 18.4252C12.6812 18.4252 11.6906 17.8783 11.351 17.2314L10.7021 19.7043C10.4677 20.6085 9.83333 21.7418 9.40937 22.4335C10.4074 22.7416 11.4461 22.8979 12.4906 22.897C18.2375 22.897 22.8969 18.2377 22.8969 12.4908C22.8969 6.74391 18.2365 2.0835 12.4896 2.0835Z" fill="#E59328"/>
</svg>
