<svg width="30" height="25" viewBox="0 0 30 25" fill="none" xmlns="http://www.w3.org/2000/svg">
<path fill-rule="evenodd" clip-rule="evenodd" d="M19.0237 7.25937C19.1108 7.18661 19.2143 7.12889 19.3282 7.0895C19.4421 7.05012 19.5642 7.02985 19.6875 7.02985C19.8108 7.02985 19.9329 7.05012 20.0468 7.0895C20.1607 7.12889 20.2642 7.18661 20.3512 7.25937L25.9762 11.9469C26.0636 12.0194 26.1328 12.1056 26.1801 12.2006C26.2273 12.2955 26.2517 12.3972 26.2517 12.5C26.2517 12.6028 26.2273 12.7045 26.1801 12.7994C26.1328 12.8943 26.0636 12.9805 25.9762 13.0531L20.3512 17.7406C20.1752 17.8873 19.9365 17.9697 19.6875 17.9697C19.4385 17.9697 19.1998 17.8873 19.0237 17.7406C18.8477 17.5939 18.7488 17.395 18.7488 17.1875C18.7488 16.98 18.8477 16.7811 19.0237 16.6344L23.9869 12.5L19.0237 8.36562C18.9364 8.29305 18.8672 8.20683 18.8199 8.11192C18.7726 8.01701 18.7483 7.91525 18.7483 7.81249C18.7483 7.70973 18.7726 7.60798 18.8199 7.51306C18.8672 7.41815 18.9364 7.33194 19.0237 7.25937Z" fill="white"/>
<path fill-rule="evenodd" clip-rule="evenodd" d="M3.75 12.5C3.75 12.2928 3.84877 12.0941 4.02459 11.9476C4.2004 11.8011 4.43886 11.7188 4.6875 11.7188H24.375C24.6236 11.7188 24.8621 11.8011 25.0379 11.9476C25.2137 12.0941 25.3125 12.2928 25.3125 12.5C25.3125 12.7072 25.2137 12.9059 25.0379 13.0524C24.8621 13.1989 24.6236 13.2812 24.375 13.2812H4.6875C4.43886 13.2812 4.2004 13.1989 4.02459 13.0524C3.84877 12.9059 3.75 12.7072 3.75 12.5Z" fill="white"/>
</svg>
