<svg width="24" height="23" viewBox="0 0 24 23" fill="none" xmlns="http://www.w3.org/2000/svg">
<path d="M12 1.4375C6.20156 1.4375 1.5 5.94316 1.5 11.5C1.5 17.0568 6.20156 21.5625 12 21.5625C17.7984 21.5625 22.5 17.0568 22.5 11.5C22.5 5.94316 17.7984 1.4375 12 1.4375ZM17.0461 9.02256C17.0531 9.12813 17.0531 9.23818 17.0531 9.346C17.0531 12.6433 14.4328 16.4414 9.64453 16.4414C8.16797 16.4414 6.79922 16.0304 5.64609 15.3229C5.85703 15.3453 6.05859 15.3543 6.27422 15.3543C7.49297 15.3543 8.61328 14.959 9.50625 14.2896C8.3625 14.2672 7.40156 13.5484 7.07344 12.5602C7.47422 12.6163 7.83516 12.6163 8.24766 12.5152C7.65873 12.4006 7.12939 12.0941 6.74957 11.6478C6.36974 11.2015 6.16286 10.6429 6.16406 10.067V10.0355C6.50859 10.222 6.91406 10.3365 7.33828 10.3522C6.98166 10.1245 6.6892 9.8159 6.48682 9.45388C6.28445 9.09185 6.17841 8.68756 6.17813 8.27686C6.17813 7.81191 6.30469 7.3874 6.53203 7.01904C7.18571 7.79021 8.0014 8.42092 8.92609 8.8702C9.85078 9.31947 10.8638 9.57724 11.8992 9.62676C11.5312 7.93096 12.8531 6.55859 14.4422 6.55859C15.1922 6.55859 15.8672 6.85957 16.343 7.34473C16.9312 7.23916 17.4937 7.02803 17.9953 6.74502C17.8008 7.32227 17.393 7.80967 16.8516 8.11738C17.3766 8.06348 17.8828 7.92422 18.3516 7.72881C17.9977 8.22744 17.5547 8.66992 17.0461 9.02256Z" fill="#E59328"/>
</svg>
